<svg width="646" height="253" viewBox="0 0 646 253" fill="none" xmlns="http://www.w3.org/2000/svg">
<rect width="646" height="253" rx="10" fill="#0B0A0A"/>
<path d="M491.854 126.657C497.215 98.8997 591.579 172.433 641.293 215.358C643.482 217.247 644.796 219.974 645.182 222.84C646.56 233.067 649.052 253 625.11 253C574.159 253 566.32 227.401 533.986 218.318C512.747 212.351 503.045 229.73 499.35 244.215C498.091 249.15 493.882 253 488.79 253H469.347C462.558 253 457.738 246.382 459.788 239.91C470.442 206.276 487.059 151.48 491.854 126.657Z" fill="#4E0746"/>
<path d="M24.9578 245.529C-11.2732 104.72 176.356 180.757 309.525 228.83C320.552 232.811 317.291 253 305.567 253L34.4943 253C30.0673 253 26.061 249.816 24.9578 245.529Z" fill="#AB2656"/>
</svg>
