<?xml version="1.0" encoding="UTF-8"?>
<!DOCTYPE svg PUBLIC "-//W3C//DTD SVG 1.1//EN" "http://www.w3.org/Graphics/SVG/1.1/DTD/svg11.dtd">
<!-- Creator: CorelDRAW 2021.5 (Evaluation Version) -->
<svg xmlns="http://www.w3.org/2000/svg" xml:space="preserve" width="34.9208in" height="21.6339in" version="1.1" style="shape-rendering:geometricPrecision; text-rendering:geometricPrecision; image-rendering:optimizeQuality; fill-rule:evenodd; clip-rule:evenodd"
viewBox="0 0 27358.35 16948.83"
 xmlns:xlink="http://www.w3.org/1999/xlink"
 xmlns:xodm="http://www.corel.com/coreldraw/odm/2003">
 <defs>
  <style type="text/css">
   <![CDATA[
    .str0 {stroke:black;stroke-width:2.35;stroke-miterlimit:2.61313}
    .fil4 {fill:none}
    .fil7 {fill:black}
    .fil0 {fill:#F0D3DB}
    .fil6 {fill:white}
    .fil2 {fill:white;fill-opacity:0.211765}
    .fil1 {fill:#4E0746;fill-rule:nonzero;fill-opacity:0.211765}
    .fil3 {fill:url(#id15)}
    .fil5 {fill:url(#id16)}
    .fil8 {fill:url(#id17)}
   ]]>
  </style>
   <clipPath id="id0">
    <path d="M-0 0l27358.35 0 0 16948.83 -27358.35 0 0 -16948.83z"/>
   </clipPath>
    <clipPath id="id1">
     <path d="M6386.49 1201.1c5032.21,0 9111.63,4137.69 9111.63,9241.78 0,2537.48 -1008.52,4835.84 -2640.84,6505.95l-12857.28 0 0 -13096.74c1644.27,-1639.32 3898.74,-2650.99 6386.49,-2650.99z"/>
    </clipPath>
     <clipPath id="id2">
     </clipPath>
     <clipPath id="id3">
      <path d="M6386.49 1201.1c5032.21,0 9111.63,4137.69 9111.63,9241.78 0,2537.48 -1008.52,4835.84 -2640.84,6505.95l-12857.28 0 0 -13096.74c1644.27,-1639.32 3898.74,-2650.99 6386.49,-2650.99z"/>
     </clipPath>
    <clipPath id="id4">
     <path d="M-0 0l27358.35 0 0 16948.83 -27358.35 0 0 -16948.83z"/>
    </clipPath>
    <clipPath id="id5">
     <path d="M8634.36 1447.26l9021.22 0 0 15501.58 -31.48 0 -3509.1 -1529.85c-2.43,-1.06 -4.64,-2.19 -6.76,-3.35 -352.07,554.59 -761.11,1068.45 -1218.6,1533.21l-12889.64 0 0 -13065.56c1648.81,-1671.91 3926.35,-2705.98 6442.01,-2705.98 755.9,0 1490.06,93.99 2192.37,269.98l-0.02 -0.01zm5677.94 13630.58c2.95,-4.54 5.74,-9.03 8.28,-13.44 6.13,-10.68 12.19,-21.4 18.27,-32.11 -8.8,15.21 -17.77,30.33 -26.55,45.55zm39.67 -68.61c32.27,-57.08 63.92,-114.56 95.02,-172.4 -31.11,57.82 -62.68,115.37 -95.02,172.4zm106.86 -194.43c31.16,-58.34 61.69,-117.07 91.63,-176.16 -29.96,59.08 -60.41,117.86 -91.63,176.16zm102.4 -197.37c30,-59.57 59.36,-119.54 88.12,-179.86 -28.77,60.31 -58.07,120.32 -88.12,179.86zm97.81 -200.17c28.81,-60.79 56.95,-121.97 84.48,-183.5 -27.54,61.52 -55.63,122.73 -84.48,183.5zm93.17 -202.9c27.6,-62.06 54.51,-124.51 80.79,-187.3 -26.29,62.77 -53.16,125.26 -80.79,187.3zm88.37 -205.37c26.33,-63.3 51.96,-126.97 76.93,-190.98 -24.99,64 -50.58,127.69 -76.93,190.98zm83.64 -208.12c25.04,-64.54 49.34,-129.45 72.98,-194.69 -23.64,65.23 -47.92,130.17 -72.98,194.69zm78.72 -210.48c23.68,-65.75 46.61,-131.86 68.86,-198.29 -22.25,66.43 -45.16,132.56 -68.86,198.29zm73.81 -212.99c22.27,-66.88 43.76,-134.11 64.55,-201.66 -20.8,67.55 -42.27,134.8 -64.55,201.66zm68.83 -215.5c20.85,-68.13 40.91,-136.6 60.23,-205.39 -19.33,68.78 -39.37,137.27 -60.23,205.39zm63.63 -217.41c19.37,-69.29 37.92,-138.91 55.72,-208.85 -17.81,69.93 -36.34,139.58 -55.72,208.85zm58.59 -219.98c17.81,-70.38 34.81,-141.09 51.03,-212.11 -16.23,71.01 -33.2,141.74 -51.03,212.11zm53.31 -222.01c16.25,-71.5 31.65,-143.32 46.24,-215.46 -14.6,72.12 -29.99,143.96 -46.24,215.46zm48.02 -224.09c14.6,-72.55 28.35,-145.41 41.28,-218.56 -12.92,73.15 -26.66,146.03 -41.28,218.56zm42.66 -226.19c12.92,-73.55 24.98,-147.4 36.19,-221.55 -11.21,74.14 -23.25,148.01 -36.19,221.55zm37.19 -228.07c11.21,-74.57 21.53,-149.45 30.98,-224.6 -9.46,75.15 -19.76,150.03 -30.98,224.6zm31.67 -229.91c9.45,-75.53 17.99,-151.36 25.63,-227.46 -7.65,76.1 -16.17,151.92 -25.63,227.46zm26.08 -231.77c7.65,-76.49 14.37,-153.27 20.16,-230.31 -5.8,77.03 -12.51,153.82 -20.16,230.31zm20.41 -233.42c5.8,-77.34 10.64,-154.95 14.55,-232.81 -3.9,77.86 -8.74,155.47 -14.55,232.81zm14.68 -235.23c3.9,-78.19 6.84,-156.65 8.82,-235.34 -1.98,78.7 -4.91,157.15 -8.82,235.34zm8.86 -236.67c1.96,-79 2.95,-158.24 2.96,-237.71 -0.01,79.48 -0.99,158.71 -2.96,237.71zm2.95 -239.73c-0.02,-73.77 -0.89,-147.34 -2.75,-220.66 1.87,73.31 2.74,146.88 2.75,220.66zm-5.05 -292.71c-1.6,-50.01 -3.31,-100.01 -5.61,-149.84 2.3,49.83 4,99.82 5.61,149.84zm-10.05 -233.46c-2.6,-46.19 -5.45,-92.3 -8.64,-138.32 3.19,46.02 6.04,92.14 8.64,138.32zm-15.01 -223.86c-3.69,-46.29 -7.83,-92.44 -12.12,-138.54 4.3,46.1 8.44,92.26 12.12,138.54zm-19.87 -219.43c-5.32,-51.54 -11.28,-102.88 -17.37,-154.19 6.09,51.31 12.05,102.65 17.37,154.19zm-24.72 -216.9c-9.06,-71.36 -18.74,-142.55 -29.44,-213.38 10.7,70.83 20.38,142.01 29.44,213.38zm-37.13 -261.4c-8.57,-55.09 -17.39,-110.11 -26.93,-164.88 9.53,54.77 18.36,109.79 26.93,164.88zm-41.17 -243.17c-8.17,-44.68 -16.5,-89.29 -25.26,-133.76 8.76,44.46 17.09,89.08 25.26,133.76zm-42.53 -218.53c-8.81,-42.46 -17.92,-84.82 -27.27,-127.08 9.35,42.27 18.46,84.62 27.27,127.08zm-46.4 -211.89c-10.01,-43.14 -20.49,-86.1 -31.04,-129.02 10.55,42.93 21.04,85.89 31.04,129.02zm-50.68 -208.28c-12.99,-50.66 -26.62,-101.03 -40.38,-151.36 13.75,50.33 27.39,100.72 40.38,151.36zm-54.97 -205.4c-18.71,-66.55 -38.04,-132.84 -58.28,-198.72 20.24,65.88 39.57,132.17 58.28,198.72zm-81.12 -271.16c-13.47,-42.85 -27,-85.66 -41.05,-128.24 14.05,42.58 27.58,85.39 41.05,128.24zm-69.95 -213.64c-12.97,-38.04 -26.1,-76 -39.52,-113.82 13.42,37.82 26.55,75.79 39.52,113.82zm-71.49 -202.22c-13.49,-36.71 -27.27,-73.28 -41.16,-109.79 13.89,36.51 27.67,73.08 41.16,109.79zm-74.99 -197.62c-14.64,-37.21 -29.72,-74.17 -44.78,-111.16 15.06,36.99 30.15,73.96 44.78,111.16zm-78.87 -194.48c-18.75,-44.67 -38.01,-89.06 -57.51,-133.32 19.5,44.26 38.76,88.65 57.51,133.32zm-109.31 -249.28c-18.41,-40.48 -36.79,-80.97 -55.76,-121.13 18.97,40.16 37.36,80.65 55.76,121.13zm-98.85 -210.31c-15.67,-32.29 -31.34,-64.57 -47.35,-96.65 16.01,32.08 31.68,64.37 47.35,96.65zm-94.58 -189.49c-15.53,-30.21 -31.17,-60.33 -47,-90.35 15.82,30.02 31.48,60.14 47,90.35zm-97.35 -184.52c-15.66,-28.85 -31.59,-57.54 -47.52,-86.22 15.93,28.68 31.86,57.36 47.52,86.22zm-100.74 -181.05c-15.68,-27.41 -31.77,-54.56 -47.69,-81.81 15.92,27.26 32,54.4 47.69,81.81zm-104.42 -178.21c-9.92,-16.48 -20.2,-32.73 -30.24,-49.14 10.04,16.41 20.32,32.66 30.24,49.14zm-165.28 -263.6c-14.38,-22.17 -28.59,-44.45 -43.15,-66.49 14.56,22.04 28.77,44.33 43.15,66.49zm-111.13 -167.4c-15.23,-22.39 -30.43,-44.8 -45.83,-67.06 15.4,22.26 30.61,44.67 45.83,67.06zm-116.2 -167.04c-15.27,-21.43 -30.64,-42.78 -46.08,-64.08 15.43,21.3 30.81,42.65 46.08,64.08zm-120.04 -164.8c-14.41,-19.3 -29.03,-38.43 -43.56,-57.63 14.53,19.19 29.15,38.32 43.56,57.63zm-123.78 -162.33c-9.56,-12.23 -19.34,-24.28 -28.94,-36.45 9.62,12.17 19.38,24.22 28.94,36.45zm-339.66 -409.6c-10.25,-11.68 -20.38,-23.47 -30.7,-35.1 10.31,11.63 20.45,23.42 30.7,35.1zm-126.41 -141.04c-12.73,-13.91 -25.44,-27.84 -38.25,-41.67 12.8,13.84 25.52,27.76 38.25,41.67zm-135.45 -144.98c-12.35,-12.92 -24.76,-25.77 -37.17,-38.62 12.41,12.85 24.82,25.69 37.17,38.62zm-140.35 -143.92c-8.61,-8.62 -17.34,-17.14 -25.98,-25.73 8.64,8.59 17.37,17.1 25.98,25.73zm-543.74 -502.73c-5.86,-4.99 -11.66,-10.05 -17.53,-15.02 5.87,4.98 11.67,10.03 17.53,15.02zm-142.08 -118.68c-8.74,-7.16 -17.48,-14.32 -26.25,-21.44 8.77,7.12 17.51,14.28 26.25,21.44zm-152.64 -122.35c-7.08,-5.55 -14.19,-11.03 -21.29,-16.55 7.1,5.52 14.22,11.01 21.29,16.55z"/>
    </clipPath>
    <clipPath id="id6">
     <path d="M-0 0l27358.35 0 0 16948.83 -27358.35 0 0 -16948.83z"/>
    </clipPath>
     <clipPath id="id7">
      <path d="M17634.78 4051.93c-14.17,-291.62 -276.42,-536.16 -638.09,-586.6l-4120.94 -384.47c-373.62,-13.48 -664.69,338.51 -665.53,683.62l-479.64 4759.15c-876.56,-203.68 -1490.13,-130.42 -1782.57,337.74 -138.2,292.87 -73.84,703.72 163.01,1242.34 -8,618.3 137.51,1278.77 1273.65,1954.27l-94.07 1218.18c60,350.53 235.14,539.34 747.11,669.3l3873.66 349.41c490.56,46.89 780.76,-248.75 820.8,-783.86l387.03 52.04c481.95,-160.34 411.15,-532.73 59.15,-1458.96 194.45,26.99 443.26,-128.14 737.46,-435.75 715.41,-561.49 1401.33,-1927.41 1023.6,-2585.54 265.23,-898.69 842.71,-2174.3 -661.55,-2116.34 -245.07,-486.51 -566.89,-786.14 -826.79,-955.38l183.69 -1959.12z"/>
     </clipPath>
     <clipPath id="id8">
      <path d="M17634.78 4051.93c-14.17,-291.62 -276.42,-536.16 -638.09,-586.6l-4120.94 -384.47c-373.62,-13.48 -664.69,338.51 -665.53,683.62l-479.64 4759.15c-876.56,-203.68 -1490.13,-130.42 -1782.57,337.74 -138.2,292.87 -73.84,703.72 163.01,1242.34 -8,618.3 137.51,1278.77 1273.65,1954.27l-94.07 1218.18c60,350.53 235.14,539.34 747.11,669.3l3873.66 349.41c490.56,46.89 780.76,-248.75 820.8,-783.86l387.03 52.04c481.95,-160.34 411.15,-532.73 59.15,-1458.96 194.45,26.99 443.26,-128.14 737.46,-435.75 715.41,-561.49 1401.33,-1927.41 1023.6,-2585.54 265.23,-898.69 842.71,-2174.3 -661.55,-2116.34 -245.07,-486.51 -566.89,-786.14 -826.79,-955.38l183.69 -1959.12z"/>
     </clipPath>
     <clipPath id="id9">
      <path d="M17634.78 4051.93c-14.17,-291.62 -276.42,-536.16 -638.09,-586.6l-4120.94 -384.47c-373.62,-13.48 -664.69,338.51 -665.53,683.62l-479.64 4759.15c-876.56,-203.68 -1490.13,-130.42 -1782.57,337.74 -138.2,292.87 -73.84,703.72 163.01,1242.34 -8,618.3 137.51,1278.77 1273.65,1954.27l-94.07 1218.18c60,350.53 235.14,539.34 747.11,669.3l3873.66 349.41c490.56,46.89 780.76,-248.75 820.8,-783.86l387.03 52.04c481.95,-160.34 411.15,-532.73 59.15,-1458.96 194.45,26.99 443.26,-128.14 737.46,-435.75 715.41,-561.49 1401.33,-1927.41 1023.6,-2585.54 265.23,-898.69 842.71,-2174.3 -661.55,-2116.34 -245.07,-486.51 -566.89,-786.14 -826.79,-955.38l183.69 -1959.12z"/>
     </clipPath>
     <clipPath id="id10">
      <path d="M-0 0l27358.35 0 0 16948.83 -27358.35 0 0 -16948.83z"/>
     </clipPath>
     <clipPath id="id11">
      <path d="M13105.29 3336.87l3429.17 316.77c571.65,-6.66 847.46,228.59 807.5,634.68l-911.39 8984.74c8.73,601.86 -255.4,756.86 -584.81,796.92l-3835.31 -349.53c-298.27,-107.07 -475.65,-315.37 -463.62,-642.34l863.54 -9238.99c89.01,-361.61 314.5,-543.19 694.91,-502.26z"/>
     </clipPath>
     <clipPath id="id12">
      <path d="M13105.29 3336.87l3429.17 316.77c571.65,-6.66 847.46,228.59 807.5,634.68l-911.39 8984.74c8.73,601.86 -255.4,756.86 -584.81,796.92l-3835.31 -349.53c-298.27,-107.07 -475.65,-315.37 -463.62,-642.34l863.54 -9238.99c89.01,-361.61 314.5,-543.19 694.91,-502.26z"/>
     </clipPath>
     <clipPath id="id13">
      <path d="M13105.29 3336.87l3429.17 316.77c571.65,-6.66 847.46,228.59 807.5,634.68l-911.39 8984.74c8.73,601.86 -255.4,756.86 -584.81,796.92l-3835.31 -349.53c-298.27,-107.07 -475.65,-315.37 -463.62,-642.34l863.54 -9238.99c89.01,-361.61 314.5,-543.19 694.91,-502.26z"/>
     </clipPath>
     <clipPath id="id14">
      <path d="M-0 0l27358.35 0 0 16948.83 -27358.35 0 0 -16948.83z"/>
     </clipPath>
  <linearGradient id="id15" gradientUnits="userSpaceOnUse" x1="-2725.14" y1="10442.88" x2="15498.12" y2="10442.88">
   <stop offset="0" style="stop-opacity:1; stop-color:#AB2656"/>
   <stop offset="1" style="stop-opacity:1; stop-color:#4E0746"/>
  </linearGradient>
  <linearGradient id="id16" gradientUnits="userSpaceOnUse" xlink:href="#id15" x1="16949.84" y1="2016.28" x2="27439.68" y2="2016.28">
  </linearGradient>
  <linearGradient id="id17" gradientUnits="userSpaceOnUse" xlink:href="#id15" x1="8407.33" y1="16622.54" x2="7997.85" y2="15669.23">
  </linearGradient>
 </defs>
 <g id="Layer_x0020_1">
  <metadata id="CorelCorpID_0Corel-Layer"/>
  <polygon class="fil0" points="-0,0 27358.35,0 27358.35,16948.83 -0,16948.83 "/>
  <g style="clip-path:url(#id0)">
   <g id="_2155020459968">
    <g>
     <g>
      <polygon id="_1" class="fil1" points="15919.41,6700.15 17064.1,6700.15 17064.1,13931.6 20319.25,13948.93 19784.2,15076.29 15919.41,15076.29 "/>
      <path class="fil1" d="M23898.56 6376.96l3952.44 8699.34 -7877.83 0 3925.4 -8699.34zm4.61 2630.4l-2137.5 4880.35 4281.51 0 -2144.02 -4880.35z"/>
      <path class="fil1" d="M11842.59 6376.96l3952.44 8699.34 -7877.83 0 3925.4 -8699.34zm4.61 2630.4l-2137.5 4880.35 4281.51 0 -2144.02 -4880.35z"/>
      <polygon class="fil1" points="24219.52,6700.15 31113.3,6700.15 31113.3,7844.84 29106.71,7844.84 29106.71,15076.29 27962.17,15076.29 27962.17,7844.84 24696.68,7844.84 "/>
      <polygon class="fil1" points="11555.98,6700.15 4662.2,6700.15 4662.2,7844.84 6668.8,7844.84 6668.8,15076.29 7813.33,15076.29 7813.33,7844.84 11078.82,7844.84 "/>
     </g>
     <g>
      <polygon class="fil2" points="11847.2,9007.35 9709.71,13887.7 13991.22,13887.7 "/>
      <polygon class="fil2" points="23903.17,9007.35 21765.67,13887.7 26047.18,13887.7 "/>
     </g>
    </g>
    <path class="fil3" d="M6386.49 1201.1c5032.21,0 9111.63,4137.69 9111.63,9241.78 0,5104.1 -4079.42,9241.79 -9111.63,9241.79 -5032.21,0 -9111.63,-4137.69 -9111.63,-9241.79 0,-5104.1 4079.42,-9241.78 9111.63,-9241.78z"/>
   </g>
   <g style="clip-path:url(#id1)">
    <g>
    </g>
    <g style="clip-path:url(#id2)">
     <image x="-26286.72" y="2318.22" width="20253.09" height="15515.31" xlink:href="TALAT-bg_Images\TALAT-bg_ImgID1.png"/>
    </g>
    <g style="clip-path:url(#id3)">
    </g>
   </g>
   <g style="clip-path:url(#id4)">
    <path class="fil4" d="M6386.49 1201.1c5032.21,0 9111.63,4137.69 9111.63,9241.78 0,5104.1 -4079.42,9241.79 -9111.63,9241.79 -5032.21,0 -9111.63,-4137.69 -9111.63,-9241.79 0,-5104.1 4079.42,-9241.78 9111.63,-9241.78z"/>
    <path class="fil5" d="M16949.84 -47.1l10489.84 0 0 3802.89c-3369,1693.01 -7146.36,-3802.89 -10489.84,-3802.89z"/>
   </g>
   <g style="clip-path:url(#id5)">
    <image x="-2597.51" y="1447.25" width="22948.87" height="15515.31" xlink:href="TALAT-bg_Images\TALAT-bg_ImgID2.png"/>
   </g>
   <g style="clip-path:url(#id6)">
    <line class="fil4 str0" x1="43777.71" y1="-7434.03" x2="34536.44" y2= "-418.26" />
    <line class="fil4 str0" x1="45182.22" y1="-12448.58" x2="35940.95" y2= "-5432.82" />
    <path class="fil6" d="M6777.24 7087.76c349.47,-589.98 703.68,-734.78 996.88,-787.21 254.01,-45.02 372.67,235.13 212.21,337.87 -376.72,221.3 -523.99,-266.6 -1209.09,449.34z"/>
    <g>
    </g>
    <g style="clip-path:url(#id7)">
    </g>
    <g style="clip-path:url(#id8)">
     <image x="-4563.21" y="-1927.5" width="27783.17" height="19201.4" xlink:href="TALAT-bg_Images\TALAT-bg_ImgID3.png"/>
    </g>
    <g style="clip-path:url(#id9)">
    </g>
    <g style="clip-path:url(#id10)">
    </g>
    <g style="clip-path:url(#id11)">
    </g>
    <g style="clip-path:url(#id12)">
     <image x="11190.75" y="3237.74" width="6791.03" height="10940.93" xlink:href="TALAT-bg_Images\TALAT-bg_ImgID4.png"/>
    </g>
    <g style="clip-path:url(#id13)">
    </g>
    <g style="clip-path:url(#id14)">
    </g>
    <g>
     <polygon class="fil7" points="27220.82,690.08 36609,1508.69 38265.46,1656.36 36608.53,1514.15 "/>
     <polygon class="fil7" points="27220.8,690.21 36502.9,2324.11 38140.36,2615.62 36501.95,2329.51 "/>
     <polygon class="fil7" points="27220.78,690.34 36326.54,3127.39 37932.61,3560.57 36325.12,3132.69 "/>
     <polygon class="fil7" points="27220.74,690.47 36079.62,3911.93 37641.84,4483.45 36077.74,3917.08 "/>
     <polygon class="fil7" points="27220.68,690.6 35764.34,4671.54 37270.68,5376.98 35762.02,4676.51 "/>
     <polygon class="fil7" points="27220.62,690.72 35384.11,5400.74 36823.11,6234.72 35381.37,5405.49 "/>
     <polygon class="fil7" points="27220.55,690.83 34941.97,6094.07 36302.72,7050.23 34938.82,6098.57 "/>
     <polygon class="fil7" points="27220.47,690.93 34441.42,6746.46 35713.63,7817.55 34437.9,6750.66 "/>
     <polygon class="fil7" points="27220.38,691.04 33886.34,7353.12 35060.41,8531.07 33882.47,7357 "/>
     <polygon class="fil7" points="27220.28,691.13 33280,7908.55 34346.89,9184.29 33275.8,7912.08 "/>
     <polygon class="fil7" points="27220.17,691.21 32627.91,8409.48 33579.57,9773.38 32623.42,8412.62 "/>
     <polygon class="fil7" points="27220.06,691.28 31934.84,8852.02 32764.06,10293.77 31930.09,8854.77 "/>
     <polygon class="fil7" points="27219.94,691.34 31205.85,9232.68 31906.33,10741.34 31200.89,9235 "/>
     <polygon class="fil7" points="27219.81,691.39 30446.42,9548.4 31012.79,11112.5 30441.27,9550.28 "/>
     <polygon class="fil7" points="27219.68,691.43 29662.03,9795.78 30089.91,11403.26 29656.73,9797.2 "/>
     <polygon class="fil7" points="27219.55,691.46 28858.86,9972.61 29144.96,11611.02 28853.45,9973.56 "/>
     <polygon class="fil7" points="27219.42,691.48 28043.49,10079.19 28185.7,11736.12 28038.03,10079.66 "/>
     <polygon class="fil7" points="27219.29,691.49 27222.03,10115.84 27219.29,11778.97 27216.54,10115.84 "/>
     <polygon class="fil7" points="27219.15,691.48 26400.55,10079.66 26252.87,11736.12 26395.08,10079.19 "/>
     <polygon class="fil7" points="27219.02,691.46 25585.12,9973.56 25293.61,11611.02 25579.72,9972.61 "/>
     <polygon class="fil7" points="27218.89,691.43 24781.84,9797.2 24348.66,11403.26 24776.54,9795.78 "/>
     <polygon class="fil7" points="27218.76,691.39 23997.31,9550.28 23425.78,11112.5 23992.16,9548.4 "/>
     <polygon class="fil7" points="27218.64,691.34 23237.69,9235 22532.25,10741.34 23232.72,9232.68 "/>
     <polygon class="fil7" points="27218.52,691.28 22508.49,8854.77 21674.51,10293.77 22503.74,8852.02 "/>
     <polygon class="fil7" points="27218.4,691.21 21815.16,8412.62 20859,9773.38 21810.66,8409.48 "/>
     <polygon class="fil7" points="27218.3,691.13 21162.77,7912.08 20091.68,9184.29 21158.57,7908.55 "/>
     <polygon class="fil7" points="27218.19,691.04 20556.11,7357 19378.16,8531.07 20552.23,7353.12 "/>
     <polygon class="fil7" points="27218.11,690.93 20000.68,6750.66 18724.94,7817.55 19997.15,6746.46 "/>
     <polygon class="fil7" points="27218.02,690.83 19499.75,6098.57 18135.85,7050.23 19496.61,6094.07 "/>
     <polygon class="fil7" points="27217.95,690.72 19057.21,5405.49 17615.46,6234.72 19054.46,5400.74 "/>
     <polygon class="fil7" points="27217.89,690.6 18676.55,4676.51 17167.89,5376.98 18674.23,4671.54 "/>
     <polygon class="fil7" points="27217.84,690.47 18360.83,3917.08 16796.73,4483.45 18358.96,3911.93 "/>
     <polygon class="fil7" points="27217.8,690.34 18113.45,3132.69 16505.97,3560.57 18112.03,3127.39 "/>
     <polygon class="fil7" points="27217.77,690.21 17936.62,2329.51 16298.21,2615.62 17935.67,2324.11 "/>
     <polygon class="fil7" points="27217.75,690.08 17830.04,1514.15 16173.11,1656.36 17829.57,1508.69 "/>
     <polygon class="fil7" points="27217.74,689.94 17793.39,692.69 16130.27,689.94 17793.39,687.2 "/>
     <polygon class="fil7" points="27217.75,689.81 17829.57,-128.8 16173.11,-276.47 17830.04,-134.26 "/>
     <polygon class="fil7" points="27217.77,689.68 17935.67,-944.22 16298.21,-1235.73 17936.62,-949.62 "/>
     <polygon class="fil7" points="27217.8,689.55 18112.03,-1747.5 16505.97,-2180.68 18113.45,-1752.8 "/>
     <polygon class="fil7" points="27217.84,689.42 18358.96,-2532.04 16796.73,-3103.56 18360.83,-2537.19 "/>
     <polygon class="fil7" points="27217.89,689.29 18674.23,-3291.65 17167.89,-3997.09 18676.55,-3296.62 "/>
     <polygon class="fil7" points="27217.95,689.17 19054.46,-4020.85 17615.46,-4854.83 19057.21,-4025.6 "/>
     <polygon class="fil7" points="27218.02,689.06 19496.61,-4714.19 18135.85,-5670.34 19499.75,-4718.68 "/>
     <polygon class="fil7" points="27218.11,688.95 19997.15,-5366.57 18724.94,-6437.66 20000.68,-5370.77 "/>
     <polygon class="fil7" points="27218.19,688.85 20552.23,-5973.23 19378.16,-7151.18 20556.11,-5977.11 "/>
     <polygon class="fil7" points="27218.3,688.76 21158.57,-6528.66 20091.68,-7804.4 21162.77,-6532.19 "/>
     <polygon class="fil7" points="27218.4,688.68 21810.66,-7029.59 20859,-8393.49 21815.16,-7032.73 "/>
     <polygon class="fil7" points="27218.52,688.61 22503.74,-7472.14 21674.51,-8913.88 22508.49,-7474.88 "/>
     <polygon class="fil7" points="27218.64,688.55 23232.72,-7852.79 22532.25,-9361.45 23237.69,-7855.11 "/>
     <polygon class="fil7" points="27218.76,688.5 23992.16,-8168.51 23425.78,-9732.61 23997.31,-8170.39 "/>
     <polygon class="fil7" points="27218.89,688.45 24776.54,-8415.89 24348.66,-10023.37 24781.84,-8417.31 "/>
     <polygon class="fil7" points="27219.02,688.43 25579.72,-8592.72 25293.61,-10231.13 25585.12,-8593.67 "/>
     <polygon class="fil7" points="27219.15,688.41 26395.08,-8699.3 26252.87,-10356.23 26400.55,-8699.77 "/>
     <polygon class="fil7" points="27219.29,688.4 27216.54,-8735.96 27219.29,-10399.08 27222.03,-8735.96 "/>
     <polygon class="fil7" points="27219.42,688.41 28038.03,-8699.77 28185.7,-10356.23 28043.49,-8699.3 "/>
     <polygon class="fil7" points="27219.55,688.43 28853.45,-8593.67 29144.96,-10231.13 28858.86,-8592.72 "/>
     <polygon class="fil7" points="27219.68,688.45 29656.73,-8417.31 30089.91,-10023.37 29662.03,-8415.89 "/>
     <polygon class="fil7" points="27219.81,688.5 30441.27,-8170.39 31012.79,-9732.61 30446.42,-8168.51 "/>
     <polygon class="fil7" points="27219.94,688.55 31200.89,-7855.11 31906.33,-9361.45 31205.85,-7852.79 "/>
     <polygon class="fil7" points="27220.06,688.61 31930.09,-7474.88 32764.06,-8913.88 31934.84,-7472.14 "/>
     <polygon class="fil7" points="27220.17,688.68 32623.42,-7032.73 33579.57,-8393.49 32627.91,-7029.59 "/>
     <polygon class="fil7" points="27220.28,688.76 33275.8,-6532.19 34346.89,-7804.4 33280,-6528.66 "/>
     <polygon class="fil7" points="27220.38,688.85 33882.47,-5977.11 35060.41,-7151.18 33886.34,-5973.23 "/>
     <polygon class="fil7" points="27220.47,688.95 34437.9,-5370.77 35713.63,-6437.66 34441.42,-5366.57 "/>
     <polygon class="fil7" points="27220.55,689.06 34938.82,-4718.68 36302.72,-5670.34 34941.97,-4714.19 "/>
     <polygon class="fil7" points="27220.62,689.17 35381.37,-4025.6 36823.11,-4854.83 35384.11,-4020.85 "/>
     <polygon class="fil7" points="27220.68,689.29 35762.02,-3296.62 37270.68,-3997.09 35764.34,-3291.65 "/>
     <polygon class="fil7" points="27220.74,689.42 36077.74,-2537.19 37641.84,-3103.56 36079.62,-2532.04 "/>
     <polygon class="fil7" points="27220.78,689.55 36325.12,-1752.8 37932.61,-2180.68 36326.54,-1747.5 "/>
     <polygon class="fil7" points="27220.8,689.68 36501.95,-949.62 38140.36,-1235.73 36502.9,-944.22 "/>
     <polygon class="fil7" points="27220.82,689.81 36608.53,-134.26 38265.46,-276.47 36609,-128.8 "/>
     <polygon class="fil7" points="27220.83,689.94 36645.19,687.2 38308.31,689.94 36645.19,692.69 "/>
    </g>
    <g>
     <polygon class="fil7" points="443.69,17368.87 9831.87,18187.48 11488.33,18335.15 9831.39,18192.94 "/>
     <polygon class="fil7" points="443.67,17369.01 9725.77,19002.91 11363.23,19294.42 9724.82,19008.31 "/>
     <polygon class="fil7" points="443.64,17369.14 9549.41,19806.18 11155.47,20239.36 9547.99,19811.48 "/>
     <polygon class="fil7" points="443.6,17369.26 9302.48,20590.72 10864.71,21162.24 9300.61,20595.87 "/>
     <polygon class="fil7" points="443.55,17369.39 8987.21,21350.34 10493.55,22055.78 8984.89,21355.31 "/>
     <polygon class="fil7" points="443.49,17369.51 8606.97,22079.54 10045.98,22913.51 8604.23,22084.29 "/>
     <polygon class="fil7" points="443.42,17369.62 8164.83,22772.87 9525.59,23729.02 8161.69,22777.36 "/>
     <polygon class="fil7" points="443.33,17369.73 7664.29,23425.25 8936.5,24496.34 7660.76,23429.45 "/>
     <polygon class="fil7" points="443.24,17369.83 7109.21,24031.92 8283.28,25209.86 7105.33,24035.79 "/>
     <polygon class="fil7" points="443.14,17369.92 6502.87,24587.35 7569.76,25863.09 6498.67,24590.87 "/>
     <polygon class="fil7" points="443.04,17370 5850.78,25088.27 6802.44,26452.17 5846.28,25091.42 "/>
     <polygon class="fil7" points="442.92,17370.07 5157.7,25530.82 5986.93,26972.56 5152.95,25533.56 "/>
     <polygon class="fil7" points="442.8,17370.13 4428.72,25911.47 5129.19,27420.13 4423.75,25913.79 "/>
     <polygon class="fil7" points="442.68,17370.19 3669.28,26227.19 4235.66,27791.3 3664.13,26229.07 "/>
     <polygon class="fil7" points="442.55,17370.23 2884.89,26474.57 3312.78,28082.06 2879.6,26475.99 "/>
     <polygon class="fil7" points="442.42,17370.26 2081.72,26651.4 2367.83,28289.81 2076.32,26652.35 "/>
     <polygon class="fil7" points="442.29,17370.27 1266.36,26757.98 1408.57,28414.91 1260.89,26758.45 "/>
     <polygon class="fil7" points="442.15,17370.28 444.89,26794.64 442.15,28457.76 439.41,26794.64 "/>
     <polygon class="fil7" points="442.02,17370.27 -376.59,26758.45 -524.26,28414.91 -382.05,26757.98 "/>
     <polygon class="fil7" points="441.88,17370.26 -1192.02,26652.35 -1483.53,28289.81 -1197.42,26651.4 "/>
     <polygon class="fil7" points="441.75,17370.23 -1995.29,26475.99 -2428.47,28082.06 -2000.59,26474.57 "/>
     <polygon class="fil7" points="441.63,17370.19 -2779.83,26229.07 -3351.35,27791.3 -2784.98,26227.19 "/>
     <polygon class="fil7" points="441.5,17370.13 -3539.45,25913.79 -4244.89,27420.13 -3544.41,25911.47 "/>
     <polygon class="fil7" points="441.38,17370.07 -4268.65,25533.56 -5102.62,26972.56 -4273.4,25530.82 "/>
     <polygon class="fil7" points="441.27,17370 -4961.98,25091.42 -5918.13,26452.17 -4966.47,25088.27 "/>
     <polygon class="fil7" points="441.16,17369.92 -5614.36,24590.87 -6685.45,25863.09 -5618.56,24587.35 "/>
     <polygon class="fil7" points="441.06,17369.83 -6221.03,24035.79 -7398.97,25209.86 -6224.9,24031.92 "/>
     <polygon class="fil7" points="440.97,17369.73 -6776.46,23429.45 -8052.19,24496.34 -6779.98,23425.25 "/>
     <polygon class="fil7" points="440.89,17369.62 -7277.38,22777.36 -8641.28,23729.02 -7280.53,22772.87 "/>
     <polygon class="fil7" points="440.82,17369.51 -7719.93,22084.29 -9161.67,22913.51 -7722.67,22079.54 "/>
     <polygon class="fil7" points="440.76,17369.39 -8100.58,21355.31 -9609.24,22055.78 -8102.9,21350.34 "/>
     <polygon class="fil7" points="440.7,17369.26 -8416.3,20595.87 -9980.41,21162.24 -8418.18,20590.72 "/>
     <polygon class="fil7" points="440.66,17369.14 -8663.68,19811.48 -10271.17,20239.36 -8665.1,19806.18 "/>
     <polygon class="fil7" points="440.64,17369.01 -8840.51,19008.31 -10478.92,19294.42 -8841.46,19002.91 "/>
     <polygon class="fil7" points="440.62,17368.87 -8947.09,18192.94 -10604.02,18335.15 -8947.56,18187.48 "/>
     <polygon class="fil7" points="440.61,17368.74 -8983.75,17371.48 -10646.87,17368.74 -8983.75,17366 "/>
     <polygon class="fil7" points="440.62,17368.6 -8947.56,16550 -10604.02,16402.32 -8947.09,16544.53 "/>
     <polygon class="fil7" points="440.64,17368.47 -8841.46,15734.57 -10478.92,15443.06 -8840.51,15729.17 "/>
     <polygon class="fil7" points="440.66,17368.34 -8665.1,14931.29 -10271.17,14498.11 -8663.68,14926 "/>
     <polygon class="fil7" points="440.7,17368.21 -8418.18,14146.76 -9980.41,13575.24 -8416.3,14141.61 "/>
     <polygon class="fil7" points="440.76,17368.09 -8102.9,13387.14 -9609.24,12681.7 -8100.58,13382.17 "/>
     <polygon class="fil7" points="440.82,17367.97 -7722.67,12657.94 -9161.67,11823.96 -7719.93,12653.19 "/>
     <polygon class="fil7" points="440.89,17367.85 -7280.53,11964.61 -8641.28,11008.45 -7277.38,11960.11 "/>
     <polygon class="fil7" points="440.97,17367.75 -6779.98,11312.22 -8052.19,10241.13 -6776.46,11308.02 "/>
     <polygon class="fil7" points="441.06,17367.65 -6224.9,10705.56 -7398.97,9527.61 -6221.03,10701.68 "/>
     <polygon class="fil7" points="441.16,17367.56 -5618.56,10150.13 -6685.45,8874.39 -5614.36,10146.6 "/>
     <polygon class="fil7" points="441.27,17367.47 -4966.47,9649.21 -5918.13,8285.31 -4961.98,9646.06 "/>
     <polygon class="fil7" points="441.38,17367.4 -4273.4,9206.66 -5102.62,7764.91 -4268.65,9203.92 "/>
     <polygon class="fil7" points="441.5,17367.34 -3544.41,8826 -4244.89,7317.34 -3539.45,8823.68 "/>
     <polygon class="fil7" points="441.63,17367.29 -2784.98,8510.28 -3351.35,6946.18 -2779.83,8508.41 "/>
     <polygon class="fil7" points="441.75,17367.25 -2000.59,8262.9 -2428.47,6655.42 -1995.29,8261.48 "/>
     <polygon class="fil7" points="441.88,17367.22 -1197.42,8086.07 -1483.53,6447.67 -1192.02,8085.12 "/>
     <polygon class="fil7" points="442.02,17367.2 -382.05,7979.5 -524.26,6322.56 -376.59,7979.02 "/>
     <polygon class="fil7" points="442.15,17367.2 439.41,7942.84 442.15,6279.72 444.89,7942.84 "/>
     <polygon class="fil7" points="442.29,17367.2 1260.89,7979.02 1408.57,6322.56 1266.36,7979.5 "/>
     <polygon class="fil7" points="442.42,17367.22 2076.32,8085.12 2367.83,6447.67 2081.72,8086.07 "/>
     <polygon class="fil7" points="442.55,17367.25 2879.6,8261.48 3312.78,6655.42 2884.89,8262.9 "/>
     <polygon class="fil7" points="442.68,17367.29 3664.13,8508.41 4235.66,6946.18 3669.28,8510.28 "/>
     <polygon class="fil7" points="442.8,17367.34 4423.75,8823.68 5129.19,7317.34 4428.72,8826 "/>
     <polygon class="fil7" points="442.92,17367.4 5152.95,9203.92 5986.93,7764.91 5157.7,9206.66 "/>
     <polygon class="fil7" points="443.04,17367.47 5846.28,9646.06 6802.44,8285.31 5850.78,9649.21 "/>
     <polygon class="fil7" points="443.14,17367.56 6498.67,10146.6 7569.76,8874.39 6502.87,10150.13 "/>
     <polygon class="fil7" points="443.24,17367.65 7105.33,10701.68 8283.28,9527.61 7109.21,10705.56 "/>
     <polygon class="fil7" points="443.33,17367.75 7660.76,11308.02 8936.5,10241.13 7664.29,11312.22 "/>
     <polygon class="fil7" points="443.42,17367.85 8161.69,11960.11 9525.59,11008.45 8164.83,11964.61 "/>
     <polygon class="fil7" points="443.49,17367.97 8604.23,12653.19 10045.98,11823.96 8606.97,12657.94 "/>
     <polygon class="fil7" points="443.55,17368.09 8984.89,13382.17 10493.55,12681.7 8987.21,13387.14 "/>
     <polygon class="fil7" points="443.6,17368.21 9300.61,14141.61 10864.71,13575.24 9302.48,14146.76 "/>
     <polygon class="fil7" points="443.64,17368.34 9547.99,14926 11155.47,14498.11 9549.41,14931.29 "/>
     <polygon class="fil7" points="443.67,17368.47 9724.82,15729.17 11363.23,15443.06 9725.77,15734.57 "/>
     <polygon class="fil7" points="443.69,17368.6 9831.39,16544.53 11488.33,16402.32 9831.87,16550 "/>
     <polygon class="fil7" points="443.69,17368.74 9868.05,17366 11531.17,17368.74 9868.05,17371.48 "/>
    </g>
    <path class="fil8" d="M8365.27 16640.61c72.17,-493.18 -61.83,-736.93 -203.57,-900.58 -122.98,-141.56 -318.1,-37.47 -274.38,93.95 111.75,297.28 418.01,88.84 477.95,806.63z"/>
   </g>
  </g>
  <polygon class="fil4" points="-0,0 27358.35,0 27358.35,16948.83 -0,16948.83 "/>
 </g>
</svg>
