<svg width="1397" height="666" viewBox="0 0 1397 666" fill="none" xmlns="http://www.w3.org/2000/svg">
<g clip-path="url(#clip0_550_2)">
<rect width="1397" height="666" fill="#811A52"/>
<rect x="-36" y="228" width="1527.83" height="771" fill="white"/>
<path fill-rule="evenodd" clip-rule="evenodd" d="M1398.81 574.884C1396.97 573.548 1395.08 572.339 1393.14 571.254L1321.56 656.018C1322.96 657.75 1324.47 659.415 1326.09 661.002L1398.81 574.884ZM1329.82 664.337L1402.72 578C1404.43 579.483 1406.02 581.047 1407.5 582.681L1335.23 668.269C1333.38 667.08 1331.57 665.77 1329.82 664.337ZM1339.63 670.81C1341.71 671.887 1343.83 672.825 1345.99 673.624L1414.59 592.39C1413.44 590.395 1412.16 588.457 1410.75 586.592L1339.63 670.81ZM1417.06 597.209L1351.16 675.257C1353.64 675.911 1356.15 676.393 1358.67 676.703L1419.75 604.376C1419.02 601.939 1418.12 599.543 1417.06 597.209ZM1421.2 610.41L1364.87 677.121C1367.97 677.16 1371.08 676.944 1374.15 676.477L1422.12 619.666C1422.06 616.562 1421.75 613.466 1421.2 610.41ZM1421.65 627.969L1382.25 674.626C1392.26 671.553 1401.53 665.665 1408.79 657.071C1416.05 648.478 1420.3 638.351 1421.65 627.969ZM1318.52 651.868L1388.54 568.953C1386.36 567.986 1384.13 567.165 1381.88 566.49L1314.98 645.719C1316.02 647.828 1317.2 649.882 1318.52 651.868ZM1312.76 640.602L1376.46 565.155C1373.84 564.645 1371.19 564.324 1368.54 564.189L1310.48 632.955C1311.05 635.547 1311.81 638.103 1312.76 640.602ZM1309.42 626.457L1361.96 564.236C1358.77 564.444 1355.59 564.921 1352.47 565.665L1309.24 616.866C1309.03 620.065 1309.09 623.274 1309.42 626.457ZM1310.67 607.423L1343.4 568.657C1335.55 572.009 1328.34 577.199 1322.45 584.169C1316.57 591.139 1312.66 599.118 1310.67 607.423Z" fill="#4E0746"/>
<path fill-rule="evenodd" clip-rule="evenodd" d="M73.4359 435.874C74.0038 436.678 74.6129 437.438 75.2587 438.153L116.436 413.326C116.104 412.42 115.716 411.527 115.27 410.649L73.4359 435.874ZM114.205 408.761L72.2634 434.05C71.77 433.204 71.3331 432.34 70.9515 431.462L112.529 406.393C113.126 407.14 113.687 407.93 114.205 408.761ZM111.077 404.738C110.375 404.007 109.633 403.326 108.858 402.697L69.396 426.491C69.5904 427.47 69.8463 428.444 70.1651 429.406L111.077 404.738ZM69.0507 424.168L106.965 401.308C106.038 400.694 105.075 400.147 104.081 399.668L68.9465 420.852C68.9063 421.955 68.9404 423.062 69.0507 424.168ZM69.1914 418.174L101.598 398.634C100.329 398.186 99.0243 397.842 97.6994 397.606L70.1021 414.246C69.6919 415.528 69.3872 416.842 69.1914 418.174ZM71.4493 410.903L94.114 397.238C89.5783 397.105 84.9532 398.231 80.7785 400.748C76.6039 403.265 73.4496 406.83 71.4493 410.903ZM117.105 415.452L76.827 439.738C77.5865 440.439 78.3849 441.085 79.2161 441.676L117.704 418.47C117.569 417.459 117.37 416.451 117.105 415.452ZM117.905 420.88L81.2539 442.979C82.2589 443.553 83.3008 444.053 84.3706 444.478L117.776 424.336C117.9 423.192 117.943 422.037 117.905 420.88ZM117.305 427.151L87.0795 445.375C88.4188 445.735 89.7881 445.98 91.1716 446.109L116.044 431.112C116.576 429.828 116.998 428.503 117.305 427.151ZM114.143 434.79L95.3113 446.144C99.0018 445.862 102.684 444.736 106.07 442.694C109.456 440.653 112.171 437.922 114.143 434.79Z" fill="#811A52"/>
<path fill-rule="evenodd" clip-rule="evenodd" d="M1273.91 79.6367C1273.72 79.2708 1273.56 78.8981 1273.42 78.5207L1290.59 68.1668C1290.86 68.4651 1291.12 68.7821 1291.35 69.1173L1273.91 79.6367ZM1291.84 69.8779L1274.35 80.4241C1274.57 80.7709 1274.8 81.1002 1275.05 81.4118L1292.39 70.9571C1292.23 70.5912 1292.05 70.2308 1291.84 69.8779ZM1292.72 71.8148C1292.85 72.2159 1292.96 72.6218 1293.04 73.0302L1276.58 82.9531C1276.26 82.6908 1275.95 82.407 1275.66 82.1022L1292.72 71.8148ZM1277.37 83.5326L1293.18 73.9988C1293.23 74.4601 1293.24 74.9222 1293.23 75.382L1278.57 84.2167C1278.16 84.0169 1277.76 83.7886 1277.37 83.5326ZM1279.61 84.6477L1293.13 76.499C1293.04 77.0543 1292.92 77.6021 1292.75 78.1364L1281.24 85.0762C1280.68 84.9781 1280.14 84.8347 1279.61 84.6477ZM1282.73 85.2302L1292.18 79.5305C1291.35 81.2293 1290.03 82.7163 1288.29 83.7661C1286.55 84.816 1284.62 85.2854 1282.73 85.2302ZM1289.94 67.5057L1273.14 77.6337C1273.03 77.2173 1272.95 76.7971 1272.89 76.3754L1288.94 66.6976C1289.29 66.9441 1289.62 67.2137 1289.94 67.5057ZM1288.09 66.1546L1272.81 75.3704C1272.79 74.8879 1272.81 74.4061 1272.86 73.9289L1286.79 65.5292C1287.24 65.7063 1287.68 65.9151 1288.09 66.1546ZM1285.66 65.155L1273.06 72.7551C1273.19 72.1912 1273.36 71.6384 1273.59 71.1031L1283.96 64.849C1284.54 64.9027 1285.11 65.0053 1285.66 65.155ZM1282.23 64.8345L1274.38 69.5695C1275.2 68.2634 1276.33 67.1246 1277.75 66.2733C1279.16 65.4219 1280.69 64.9523 1282.23 64.8345Z" fill="#811A52"/>
</g>
<defs>
<clipPath id="clip0_550_2">
<rect width="1397" height="666" fill="white"/>
</clipPath>
</defs>
</svg>
